<!--?xml version="1.0" encoding="utf-8"?-->
<!-- Generator: Adobe Illustrator 18.1.1, SVG Export Plug-In . SVG Version: 6.00 Build 0)  -->

<svg version="1.1" id="_x31_0" xmlns="http://www.w3.org/2000/svg" xmlns:xlink="http://www.w3.org/1999/xlink" x="0px" y="0px" viewBox="0 0 512 512" style="width: 256px; height: 256px; opacity: 1;" xml:space="preserve">
<style type="text/css">
	.st0{fill:#374149;}
</style>
<g>
	<polygon class="st0" points="511.992,208.239 470.086,157.658 41.972,157.658 16.43,188.443 0,208.083 0.133,208.083 0,208.239 	
		"></polygon>
	<path class="st0" d="M382.642,60.324c0-33.121-26.882-59.999-59.999-59.999H189.282c-33.117,0-59.999,26.878-59.999,59.999v85.358
		h253.359V60.324z M205.684,67.843c0,5.519-4.48,10-9.999,10c-5.52,0-10-4.481-10-10c0-5.519,4.48-10,10-10
		C201.204,57.843,205.684,62.324,205.684,67.843z M316.242,57.843c5.519,0,9.999,4.481,9.999,10c0,5.519-4.48,10-9.999,10
		c-5.52,0-10-4.481-10-10C306.242,62.324,310.722,57.843,316.242,57.843z"></path>
	<path class="st0" d="M127.283,461.755c0,2.961,2.32,5.282,5.281,5.282h16.641c2.961,0,5.281-2.321,5.281-5.282v-89.276h-27.202
		V461.755z"></path>
	<path class="st0" d="M357.6,461.755c0,2.961,2.32,5.282,5.203,5.282h16.718c2.961,0,5.281-2.321,5.281-5.282v-89.276H357.6V461.755
		z"></path>
	<path class="st0" d="M512,224.403L512,224.403v-0.164H0.008v7.121c0,14.481,11.758,26.16,26.238,26.16h17.121v58.64
		c0,12.48,6.558,23.519,16.398,29.757v160.478c0,2.882,2.32,5.281,5.281,5.281h20.082c2.878,0,5.277-2.398,5.277-5.281V351.44
		h331.276v154.954c0,2.882,2.398,5.281,5.282,5.281h20.078c2.961,0,5.282-2.398,5.282-5.281V345.916
		c9.839-6.238,16.398-17.277,16.398-29.757v-58.64h17.121c14.481,0,26.16-11.679,26.16-26.16v-6.937V224.403z M159.282,280.48
		v23.038H91.334h-0.05V280.48h67.952H159.282z"></path>
</g>
</svg>
