<svg xmlns="http://www.w3.org/2000/svg" xml:space="preserve" viewBox="0 0 640 640">
  <path fill="#374149" d="M105.972 221.333 80.43 252.118 64 271.758h.133l-.133.156h511.992l-41.906-50.581zm340.67-97.334C446.642 90.878 419.76 64 386.643 64H253.282c-33.117 0-59.999 26.878-59.999 59.999v85.358h253.359zm-176.958 7.519c0 5.519-4.48 10-9.999 10-5.52 0-10-4.481-10-10s4.48-10 10-10c5.519 0 9.999 4.481 9.999 10zm110.558-10c5.519 0 9.999 4.481 9.999 10s-4.48 10-9.999 10c-5.52 0-10-4.481-10-10s4.48-10 10-10zM191.283 525.43c0 2.961 2.32 5.282 5.281 5.282h16.641c2.961 0 5.281-2.321 5.281-5.282v-89.276h-27.202v89.276zm230.317 0c0 2.961 2.32 5.282 5.203 5.282h16.718c2.961 0 5.281-2.321 5.281-5.282v-89.276H421.6Z"/>
  <path fill="#374149" d="M576 288.078v-.164H64.008v7.121c0 14.481 11.758 26.16 26.238 26.16h17.121v58.64c0 12.48 6.558 23.519 16.398 29.757V570.07c0 2.882 2.32 5.281 5.281 5.281h20.082c2.878 0 5.277-2.398 5.277-5.281V415.115h331.276v154.954c0 2.882 2.398 5.281 5.282 5.281h20.078c2.961 0 5.282-2.398 5.282-5.281V409.591c9.839-6.238 16.398-17.277 16.398-29.757v-58.64h17.121c14.481 0 26.16-11.679 26.16-26.16v-6.956zm-352.718 56.077v23.038h-67.998v-23.038h67.952z"/>
</svg>
